HIERARCHY
ROOT Hips
{
	OFFSET 0.000000 0.000000 0.000000 
	CHANNELS 6 Xposition Yposition Zposition Yrotation Zrotation Xrotation 
	JOINT Lumbar
	{
		OFFSET 0.000000 0.000000 0.000000 
		CHANNELS 3 Zrotation Xrotation Yrotation
		JOINT Neck
		{
			OFFSET 0.000000 0.445665 0.000000 
			CHANNELS 3 Zrotation Xrotation Yrotation
			End Site
			{
				OFFSET 0.000000 0.227535 0.000000 
			}
		}
		JOINT RightShoulder
		{
			OFFSET 0.019635 0.377685 0.194865 
			CHANNELS 3 Zrotation Xrotation Yrotation
			JOINT RightElbow
			{
				OFFSET 0.000000 -0.243375 0.000000 
				CHANNELS 2 Zrotation Yrotation
				JOINT RightWrist
				{
					OFFSET 0.000000 -0.264825 0.000000 
					CHANNELS 2 Zrotation Xrotation
					End Site
					{
						OFFSET 0.006600 -0.176220 0.000990 
					}
				}
			}
		}
		JOINT LeftShoulder
		{
			OFFSET 0.019635 0.377685 -0.194865 
			CHANNELS 3 Zrotation Xrotation Yrotation
			JOINT LeftElbow
			{
				OFFSET 0.000000 -0.243375 0.000000 
				CHANNELS 2 Zrotation Yrotation
				JOINT LeftWrist
				{
					OFFSET 0.000000 -0.264825 0.000000 
					CHANNELS 2 Zrotation Xrotation
					End Site
					{
						OFFSET 0.006600 -0.176220 -0.000990 
					}
				}
			}
		}
	}
	JOINT RightHip
	{
		OFFSET 0.052140 -0.069960 0.075570 
		CHANNELS 3 Zrotation Xrotation Yrotation
		JOINT RightKnee
		{
			OFFSET 0.000000 -0.402270 0.000000 
			CHANNELS 1 Zrotation
			JOINT RightAnkle
			{
				OFFSET 0.000000 -0.404085 0.000000 
				CHANNELS 3 Zrotation Xrotation Yrotation
				End Site
				{
					OFFSET 0.204105 -0.089430 0.008415 
				}
			}
		}
	}
	JOINT LeftHip
	{
		OFFSET 0.052140 -0.069960 -0.075570 
		CHANNELS 3 Zrotation Xrotation Yrotation
		JOINT LeftKnee
		{
			OFFSET 0.000000 -0.402270 0.000000 
			CHANNELS 1 Zrotation
			JOINT LeftAnkle
			{
				OFFSET 0.000000 -0.404085 0.000000 
				CHANNELS 3 Zrotation Xrotation Yrotation
				End Site
				{
					OFFSET 0.204105 -0.089430 -0.008415 
				}
			}
		}
	}
}
MOTION
Frames: 25
Frame Time: 0.02
0.04673 -0.0082 -0.07142 -194.08101 -35.97496 -1.37926 37.00305 6.91567 -4.10066 -8.70586 4.73733 -2.10712 -7.66458 -28.97699 21.62984 49.13605 86.10989 4.10918 3.06983 -27.20288 28.1335 -10.49428 56.05054 -90.32604 6.99961 -0.42393 45.91328 -1.28791 -15.79356 -25.74353 -6.47438 -1.21924 -2.83529 48.57964 13.42127 6.46685 -35.63644 -7.31894 2.68349 3.54862
0.04669 -0.00786 -0.06689 -194.28102 -35.89512 -1.39795 36.61499 7.01492 -3.8044 -8.54448 5.09622 -2.10747 -6.99004 -28.23813 21.54771 47.75341 86.08687 3.85327 3.1264 -27.15467 28.13899 -10.6099 56.32386 -88.59627 6.50928 0.10764 45.89814 -1.40274 -15.02838 -25.63711 -6.47566 -1.26212 -2.85752 48.37657 13.31595 6.60483 -35.33581 -7.23932 2.57693 3.49735
0.04654 -0.00756 -0.06191 -194.44464 -35.76563 -1.44389 36.16752 7.10969 -3.54909 -8.38531 5.49365 -2.10791 -6.43111 -27.35211 21.13053 46.37028 86.0388 3.57288 3.15026 -27.12751 28.13201 -10.62523 56.63748 -87.58971 6.12311 0.5294 45.82508 -1.48148 -14.10981 -25.50636 -6.47177 -1.3235 -2.88873 48.08758 13.16813 6.6844 -34.90758 -7.17474 2.47963 3.45361
0.04645 -0.00725 -0.05709 -194.62519 -35.67357 -1.47968 35.75776 7.20345 -3.27679 -8.21975 5.8776 -2.10829 -5.79779 -26.52854 20.88167 44.94962 86.0043 3.30878 3.18274 -27.08045 28.13605 -10.69748 56.92338 -86.25294 5.69568 0.9955 45.79614 -1.58469 -13.29345 -25.38882 -6.47151 -1.37367 -2.91441 47.85759 13.0416 6.81149 -34.54573 -7.10427 2.37925 3.40681
0.04629 -0.00693 -0.05242 -194.80337 -35.51688 -1.506 35.30289 7.3099 -2.99794 -8.0795 6.24773 -2.10873 -5.25335 -25.71738 20.56357 43.67596 85.9596 3.02304 3.23571 -27.081 28.11772 -10.72013 57.25228 -84.83608 5.22614 1.50624 45.68779 -1.65522 -12.3446 -25.25953 -6.46577 -1.43537 -2.94602 47.53926 12.90866 6.85547 -34.14628 -7.02895 2.27284 3.3578
0.04627 -0.00663 -0.04733 -194.97786 -35.48369 -1.5582 34.92585 7.38854 -2.74256 -7.8844 6.65284 -2.10908 -4.55395 -24.84818 20.30899 42.1059 85.93059 2.77553 3.24136 -26.98316 28.14394 -10.82557 57.49853 -83.7934 4.87478 1.8885 45.73356 -1.78458 -11.6315 -25.15026 -6.47041 -1.47769 -2.96757 47.38661 12.77697 7.05346 -33.79527 -6.96768 2.1819 3.31556
0.04655 -0.00639 -0.04125 -195.15425 -35.80436 -1.67912 34.80282 7.39619 -2.539 -7.55812 7.16625 -2.10919 -3.38204 -23.85131 20.33377 39.65642 85.95063 2.65165 3.11258 -26.64087 28.28292 -11.15114 57.52367 -83.57676 4.83131 1.9595 46.20921 -2.08682 -11.63047 -25.0989 -6.50291 -1.46057 -2.95819 47.70652 12.67484 7.73025 -33.61463 -6.94091 2.12877 3.28869
0.04699 -0.00617 -0.03476 -195.32768 -36.25117 -1.82441 34.75587 7.3753 -2.35786 -7.17285 7.70918 -2.10922 -2.05435 -22.80323 20.43129 36.92274 85.98735 2.56513 2.93959 -26.19212 28.46873 -11.56911 57.46084 -83.72789 4.90401 1.89969 46.84445 -2.449 -11.86664 -25.06974 -6.54639 -1.42367 -2.93861 48.19786 12.57247 8.55675 -33.48672 -6.92795 2.09152 3.26871
0.04742 -0.00593 -0.02844 -195.50062 -36.64003 -1.95608 34.65834 7.36431 -2.16864 -6.80051 8.22488 -2.1093 -0.8078 -21.78086 20.48045 34.3579 86.01702 2.45355 2.79599 -25.77145 28.64254 -11.96672 57.42693 -83.74429 4.92175 1.88529 47.41339 -2.78252 -11.97919 -25.03259 -6.58623 -1.39666 -2.92432 48.61498 12.45977 9.28835 -33.33122 -6.90918 2.04893 3.24662
0.04758 -0.00572 -0.02219 -195.68029 -37.02976 -2.09963 34.6264 7.36566 -1.97302 -6.48578 8.80127 -2.10934 0.48202 -20.74031 20.57887 31.61818 86.04426 2.3746 2.61432 -25.43951 28.77971 -12.27105 57.44115 -83.65348 4.95319 1.92421 47.95328 -3.12089 -12.15575 -24.9846 -6.6203 -1.36618 -2.90745 49.01302 12.3895 10.13017 -33.18564 -6.88902 1.9988 3.2205
0.04835 -0.00546 -0.0157 -195.84538 -37.4483 -2.22362 34.47654 7.33519 -1.7942 -6.03836 9.2565 -2.10943 1.71567 -19.73072 20.60083 29.18431 86.07998 2.23766 2.49887 -24.89433 29.00079 -12.79102 57.33371 -83.85679 4.98085 1.82545 48.59319 -3.46373 -12.25415 -24.96618 -6.66893 -1.33839 -2.89358 49.49322 12.23154 10.78022 -33.03473 -6.87476 1.96792 3.20425
0.0508 -0.00505 -0.00869 -195.97456 -37.91542 -2.28985 33.98439 7.21865 -1.66683 -5.22815 9.38079 -2.10969 2.79521 -18.79134 20.35501 27.58534 86.14291 1.92451 2.60388 -23.81301 29.47391 -13.90007 56.91441 -84.84618 4.98292 1.35137 49.46322 -3.806 -12.10831 -25.01248 -6.75628 -1.31926 -2.88902 50.15322 11.83007 10.85158 -32.84679 -6.87405 1.98724 3.21407
0.05387 -0.00459 -0.00145 -196.08902 -38.40718 -2.33507 33.37121 7.07204 -1.55302 -4.28916 9.3803 -2.11 3.80596 -17.89059 20.03723 26.31733 86.21256 1.55288 2.77266 -22.51747 30.02407 -15.21998 56.3772 -86.10362 4.9741 0.74863 50.42979 -4.15083 -11.87231 -25.09024 -6.85776 -1.30394 -2.88801 50.89082 11.34093 10.72767 -32.65386 -6.8786 2.02517 3.23346
0.05666 -0.00417 0.00569 -196.2076 -38.88836 -2.38825 32.81209 6.94262 -1.4264 -3.41526 9.42909 -2.11029 4.82333 -16.99146 19.78142 24.95163 86.27396 1.21301 2.89433 -21.30014 30.51809 -16.43373 55.88934 -87.19295 4.96128 0.22329 51.35738 -4.49321 -11.65711 -25.16097 -6.95193 -1.28935 -2.88641 51.59745 10.89297 10.70135 -32.47026 -6.88025 2.05389 3.24807
0.05944 -0.00366 0.01282 -196.33549 -39.37247 -2.44875 32.25827 6.79739 -1.33031 -2.50861 9.50862 -2.11059 5.95075 -16.0105 19.41032 23.35947 86.35744 0.85354 3.08928 -20.15258 31.10259 -17.69602 55.40743 -88.49068 4.99092 -0.38593 52.27083 -4.84202 -11.52934 -25.20093 -7.04999 -1.26435 -2.88039 52.29421 10.43898 10.64183 -32.2594 -6.88455 2.08626 3.26469
0.06237 -0.00334 0.02001 -196.4423 -39.85325 -2.48898 31.66532 6.67825 -1.17147 -1.64408 9.49621 -2.11088 6.8298 -15.20857 19.25389 22.31374 86.39685 0.51927 3.14946 -18.81943 31.51673 -18.90392 54.8974 -89.41349 4.92729 -0.85009 53.23335 -5.17861 -11.20242 -25.31326 -7.14347 -1.26138 -2.88421 53.02479 9.97719 10.60443 -32.10247 -6.88438 2.11534 3.27936
0.06564 -0.00361 0.02734 -196.47968 -40.32945 -2.47583 30.97968 6.63974 -0.85408 -0.89638 9.24131 -2.11115 7.04523 -14.90292 19.76846 22.76273 86.30785 0.27987 2.80393 -16.94907 31.43797 -19.92866 54.2429 -89.23035 4.61524 -0.87453 54.31709 -5.46877 -10.28168 -25.6092 -7.21837 -1.32561 -2.91765 53.85332 9.5106 10.6613 -32.10429 -6.87059 2.1301 3.28599
0.06901 -0.00409 0.03472 -196.49925 -40.79813 -2.44335 30.26111 6.62877 -0.46995 -0.20193 8.90111 -2.11142 7.01099 -14.77416 20.48728 23.73923 86.17486 0.06578 2.32434 -14.91522 31.18574 -20.88772 53.58205 -88.66041 4.20868 -0.74934 55.4439 -5.74823 -9.17408 -25.97891 -7.28862 -1.41083 -2.9604 54.70713 9.0396 10.74722 -32.15875 -6.85209 2.14114 3.29046
0.07228 -0.00446 0.04206 -196.5366 -41.26353 -2.42125 29.56659 6.60412 -0.10397 0.49664 8.61298 -2.11169 7.08708 -14.55735 21.0759 24.43181 86.06558 -0.16749 1.91791 -13.00615 31.01481 -21.86382 52.98778 -88.26799 3.83957 -0.69698 56.54464 -6.04055 -8.19501 -26.31966 -7.36257 -1.48146 -2.99662 55.53416 8.57428 10.8311 -32.18319 -6.83558 2.154 3.29597
0.07582 -0.00487 0.04948 -196.53211 -41.76099 -2.39164 28.82959 6.58198 0.21159 1.28577 8.2664 -2.11196 7.17526 -14.37455 21.83071 25.32213 85.94195 -0.37101 1.46126 -10.87252 30.8354 -22.90027 52.12212 -87.87477 3.49016 -0.62866 57.67814 -6.30037 -7.03171 -26.64006 -7.43023 -1.57259 -3.04221 56.43204 8.09227 10.86905 -32.23309 -6.81964 2.1662 3.30117
0.0788 -0.00524 0.05675 -196.61124 -42.18598 -2.3734 28.17475 6.56321 0.64633 1.87037 8.02037 -2.11223 7.17841 -14.16195 22.2752 25.92178 85.83632 -0.62892 1.07748 -9.17547 30.63245 -23.79407 51.81964 -87.39167 3.08145 -0.55654 58.75001 -6.62387 -6.20525 -27.02271 -7.50982 -1.62712 -3.07102 57.18295 7.64276 11.00217 -32.24269 -6.80162 2.17963 3.30686
0.08029 -0.00545 0.06367 -196.92065 -42.4427 -2.39072 27.75671 6.53321 1.40909 1.91543 8.09537 -2.11248 7.01934 -13.82866 21.93175 25.58763 85.80248 -1.04944 0.91978 -8.68461 30.39783 -24.29665 53.09273 -86.72046 2.49771 -0.50793 59.65953 -7.13843 -6.38646 -27.53512 -7.6224 -1.56528 -3.04629 57.55773 7.30536 11.47983 -32.12668 -6.77632 2.1884 3.30999
0.08118 -0.0056 0.07044 -197.31528 -42.62083 -2.42015 27.4233 6.50856 2.28612 1.75328 8.27092 -2.11272 6.78105 -13.45884 21.24901 24.94217 85.78609 -1.52382 0.84122 -8.64758 30.1469 -24.65922 54.92949 -85.97758 1.86432 -0.46043 60.50084 -7.71539 -6.90772 -28.11164 -7.74723 -1.46759 -3.00516 57.77615 6.99776 12.0389 -31.96864 -6.74943 2.19985 3.31434
0.08228 -0.00579 0.07726 -197.67496 -42.81534 -2.44476 27.04978 6.49043 3.10165 1.67769 8.38636 -2.11296 6.57234 -13.10148 20.64146 24.43813 85.75429 -1.96952 0.73134 -8.42917 29.90892 -25.09379 56.4969 -85.28826 1.2759 -0.41351 61.36185 -8.25506 -7.25266 -28.67489 -7.86715 -1.39314 -2.97485 58.04276 6.66241 12.50051 -31.83075 -6.72516 2.21618 3.32116
0.08367 -0.00595 0.08419 -198.02034 -43.09196 -2.4666 26.67968 6.43468 3.96229 1.6336 8.55973 -2.11321 6.38374 -12.765 20.36658 23.95023 85.75271 -2.43329 0.59725 -8.09836 29.64122 -25.49148 58.12131 -84.49538 0.58837 -0.3571 62.27536 -8.83069 -7.68239 -29.17512 -7.98432 -1.29077 -2.93099 58.4087 6.38489 13.20899 -31.69007 -6.69323 2.20774 3.31569
